<svg width="25" height="24" viewBox="0 0 25 24" fill="none" xmlns="http://www.w3.org/2000/svg">
<path d="M18.9 12L13.7572 12V13.7143" stroke="#424856" stroke-width="2.05714" stroke-miterlimit="10" stroke-linecap="square"/>
<path d="M8.61429 12.8571C7.45685 12.8501 6.34857 12.3883 5.52858 11.5714" stroke="#424856" stroke-width="2.05714" stroke-miterlimit="10" stroke-linecap="square"/>
<path d="M10.3286 15.2571C9.82501 15.091 9.38742 14.7688 9.0792 14.3373C8.77099 13.9058 8.60815 13.3874 8.61429 12.8571C8.61116 12.4994 8.68625 12.1452 8.83431 11.8195C8.98237 11.4938 9.19981 11.2043 9.47143 10.9714" stroke="#424856" stroke-width="2.05714" stroke-miterlimit="10" stroke-linecap="square"/>
<path d="M17.688 17.6451L16.3286 16.2857L13.7572 16.2857V17.1428C13.7628 17.7072 13.6557 18.267 13.4424 18.7895C13.229 19.312 12.9135 19.7867 12.5144 20.1858C12.1153 20.5849 11.6406 20.9004 11.1181 21.1138C10.5956 21.3272 10.0358 21.4342 9.47144 21.4286C8.90707 21.4342 8.34725 21.3272 7.82475 21.1138C7.30224 20.9004 6.82756 20.5849 6.42847 20.1858C6.02938 19.7867 5.71391 19.312 5.50052 18.7895C5.28713 18.267 5.18011 17.7072 5.18572 17.1428C5.1879 16.6739 5.27502 16.2093 5.44286 15.7714C5.0978 15.5513 4.81444 15.2469 4.6195 14.887C4.42456 14.5272 4.32444 14.1236 4.32858 13.7143C4.32955 13.2845 4.44029 12.862 4.65029 12.487C4.8603 12.112 5.16262 11.7968 5.52858 11.5714C4.7525 10.7663 4.32186 9.68968 4.32858 8.57142C4.32297 8.00705 4.42999 7.44723 4.64337 6.92473C4.85676 6.40222 5.17224 5.92754 5.57132 5.52845C5.97041 5.12936 6.4451 4.81389 6.9676 4.6005C7.49011 4.38711 8.04992 4.28009 8.61429 4.2857H8.78572C8.95189 3.78213 9.27406 3.34455 9.70556 3.03633C10.1371 2.72811 10.6555 2.56528 11.1857 2.57142C11.5251 2.56514 11.8623 2.62736 12.1771 2.75436C12.492 2.88136 12.7779 3.07054 13.018 3.31058C13.258 3.55062 13.4472 3.8366 13.5742 4.15142C13.7012 4.46624 13.7634 4.80343 13.7572 5.14284" stroke="#424856" stroke-width="2.05714" stroke-miterlimit="10" stroke-linecap="square"/>
<path d="M17.688 6.35486L16.3286 7.71429L13.7572 7.71429V9.42857" stroke="#424856" stroke-width="2.05714" stroke-miterlimit="10" stroke-linecap="square"/>
<path d="M18.9 20.5715C19.8468 20.5715 20.6143 19.8039 20.6143 18.8572C20.6143 17.9104 19.8468 17.1429 18.9 17.1429C17.9532 17.1429 17.1857 17.9104 17.1857 18.8572C17.1857 19.8039 17.9532 20.5715 18.9 20.5715Z" stroke="#424856" stroke-width="2.05714" stroke-miterlimit="10" stroke-linecap="square"/>
<path d="M18.9 6.85716C19.8468 6.85716 20.6143 6.08965 20.6143 5.14287C20.6143 4.1961 19.8468 3.42859 18.9 3.42859C17.9532 3.42859 17.1857 4.1961 17.1857 5.14287C17.1857 6.08965 17.9532 6.85716 18.9 6.85716Z" stroke="#424856" stroke-width="2.05714" stroke-miterlimit="10" stroke-linecap="square"/>
<path d="M20.6143 13.7143C21.5611 13.7143 22.3286 12.9468 22.3286 12C22.3286 11.0532 21.5611 10.2857 20.6143 10.2857C19.6675 10.2857 18.9 11.0532 18.9 12C18.9 12.9468 19.6675 13.7143 20.6143 13.7143Z" stroke="#424856" stroke-width="2.05714" stroke-miterlimit="10" stroke-linecap="square"/>
</svg>
