<svg width="25" height="24" viewBox="0 0 25 24" fill="none" xmlns="http://www.w3.org/2000/svg">
<path d="M18.5 11.143V8.57153C18.5 6.98023 17.8679 5.45411 16.7427 4.32889C15.6174 3.20367 14.0913 2.57153 12.5 2.57153C10.9087 2.57153 9.38259 3.20367 8.25738 4.32889C7.13216 5.45411 6.50002 6.98023 6.50002 8.57153V11.143C6.50002 13.9715 3.92859 14.6572 3.92859 16.2858C3.92859 17.743 7.27145 18.8572 12.5 18.8572C17.7286 18.8572 21.0714 17.743 21.0714 16.2858C21.0714 14.6572 18.5 13.9715 18.5 11.143Z" stroke="#424856" stroke-width="2.05714" stroke-miterlimit="10" stroke-linecap="square"/>
<path d="M12.5 20.5713C11.6334 20.5713 10.8191 20.5422 10.0529 20.4856C10.2162 21.0067 10.5417 21.4621 10.9818 21.7854C11.422 22.1087 11.9539 22.283 12.5 22.283C13.0461 22.283 13.578 22.1087 14.0182 21.7854C14.4583 21.4621 14.7838 21.0067 14.9471 20.4856C14.1809 20.5422 13.3666 20.5713 12.5 20.5713Z" fill="#424856"/>
</svg>
