<svg width="16" height="16" viewBox="0 0 16 16" fill="none" xmlns="http://www.w3.org/2000/svg">
<path d="M8.75 8.00002C8.75 8.14836 8.70601 8.29336 8.6236 8.4167C8.54119 8.54003 8.42406 8.63616 8.28701 8.69293C8.14997 8.74969 7.99917 8.76455 7.85368 8.73561C7.7082 8.70667 7.57456 8.63524 7.46967 8.53035C7.36478 8.42546 7.29335 8.29182 7.26441 8.14634C7.23547 8.00085 7.25032 7.85005 7.30709 7.71301C7.36386 7.57596 7.45999 7.45883 7.58332 7.37642C7.70666 7.29401 7.85166 7.25002 8 7.25002C8.19891 7.25002 8.38968 7.32904 8.53033 7.46969C8.67098 7.61034 8.75 7.80111 8.75 8.00002ZM5.25 7.25002C5.10166 7.25002 4.95666 7.29401 4.83332 7.37642C4.70999 7.45883 4.61386 7.57596 4.55709 7.71301C4.50032 7.85005 4.48547 8.00085 4.51441 8.14634C4.54335 8.29182 4.61478 8.42546 4.71967 8.53035C4.82456 8.63524 4.9582 8.70667 5.10368 8.73561C5.24917 8.76455 5.39997 8.74969 5.53701 8.69293C5.67406 8.63616 5.79119 8.54003 5.8736 8.4167C5.95601 8.29336 6 8.14836 6 8.00002C6 7.80111 5.92098 7.61034 5.78033 7.46969C5.63968 7.32904 5.44891 7.25002 5.25 7.25002ZM10.75 7.25002C10.6017 7.25002 10.4567 7.29401 10.3333 7.37642C10.21 7.45883 10.1139 7.57596 10.0571 7.71301C10.0003 7.85005 9.98547 8.00085 10.0144 8.14634C10.0434 8.29182 10.1148 8.42546 10.2197 8.53035C10.3246 8.63524 10.4582 8.70667 10.6037 8.73561C10.7492 8.76455 10.9 8.74969 11.037 8.69293C11.1741 8.63616 11.2912 8.54003 11.3736 8.4167C11.456 8.29336 11.5 8.14836 11.5 8.00002C11.5 7.80111 11.421 7.61034 11.2803 7.46969C11.1397 7.32904 10.9489 7.25002 10.75 7.25002ZM14.5 8.00002C14.5002 9.12223 14.2099 10.2254 13.6574 11.2021C13.1048 12.1788 12.3087 12.9959 11.3467 13.5737C10.3847 14.1515 9.28942 14.4703 8.16759 14.4993C7.04575 14.5282 5.93554 14.2662 4.945 13.7388L2.81687 14.4481C2.64068 14.5069 2.4516 14.5154 2.27083 14.4728C2.09006 14.4301 1.92474 14.3379 1.79341 14.2066C1.66207 14.0753 1.56991 13.91 1.52725 13.7292C1.48459 13.5484 1.49312 13.3593 1.55187 13.1831L2.26125 11.055C1.79759 10.1833 1.53862 9.21739 1.504 8.23063C1.46937 7.24387 1.66 6.26219 2.06142 5.3601C2.46283 4.45802 3.06448 3.65924 3.8207 3.02439C4.57691 2.38954 5.46782 1.93532 6.42579 1.69619C7.38376 1.45707 8.38362 1.43932 9.34948 1.64431C10.3153 1.8493 11.2218 2.27163 12.0001 2.87925C12.7783 3.48687 13.4079 4.2638 13.8411 5.15108C14.2743 6.03835 14.4996 7.01265 14.5 8.00002ZM13.5 8.00002C13.4998 7.15635 13.3054 6.32404 12.9321 5.56748C12.5587 4.81093 12.0163 4.15042 11.3468 3.63704C10.6773 3.12366 9.89863 2.77119 9.07111 2.60689C8.24359 2.44258 7.38936 2.47086 6.57452 2.68952C5.75968 2.90818 5.00606 3.31137 4.37197 3.86789C3.73788 4.42441 3.24032 5.11935 2.91779 5.89893C2.59525 6.67852 2.45639 7.52186 2.51193 8.3637C2.56748 9.20554 2.81595 10.0233 3.23812 10.7538C3.27356 10.8151 3.29556 10.8832 3.30267 10.9537C3.30978 11.0242 3.30184 11.0954 3.27937 11.1625L2.5 13.5L4.8375 12.7206C4.88841 12.7033 4.94183 12.6944 4.99562 12.6944C5.08344 12.6945 5.16966 12.7178 5.24562 12.7619C6.08175 13.2457 7.03054 13.5007 7.99653 13.5013C8.96251 13.5019 9.91162 13.2481 10.7484 12.7654C11.5851 12.2827 12.2799 11.5881 12.763 10.7516C13.246 9.91501 13.5002 8.96601 13.5 8.00002Z" fill="white"/>
</svg>
