<svg width="17" height="16" viewBox="0 0 17 16" fill="none" xmlns="http://www.w3.org/2000/svg">
<path d="M9.22003 7.99995C9.22003 8.3976 8.89767 8.71995 8.50003 8.71995C8.10238 8.71995 7.78003 8.3976 7.78003 7.99995C7.78003 7.60231 8.10238 7.27995 8.50003 7.27995C8.89767 7.27995 9.22003 7.60231 9.22003 7.99995ZM8.50003 4.63995C8.89767 4.63995 9.22003 4.3176 9.22003 3.91995C9.22003 3.52231 8.89767 3.19995 8.50003 3.19995C8.10238 3.19995 7.78003 3.52231 7.78003 3.91995C7.78003 4.3176 8.10238 4.63995 8.50003 4.63995ZM8.50003 11.36C8.10238 11.36 7.78003 11.6823 7.78003 12.08C7.78003 12.4776 8.10238 12.8 8.50003 12.8C8.89767 12.8 9.22003 12.4776 9.22003 12.08C9.22003 11.6823 8.89767 11.36 8.50003 11.36Z" fill="#9095A1"/>
</svg>
