<svg width="25" height="24" viewBox="0 0 25 24" fill="none" xmlns="http://www.w3.org/2000/svg">
<path d="M21.7323 4.96771C21.5058 4.44431 20.9886 4.10674 20.4183 4.11001L4.5783 4.11001C4.0089 4.11113 3.49364 4.44767 3.26373 4.96859C3.03383 5.48952 3.13248 6.097 3.5154 6.51841L3.5226 6.52651L9.6183 13.0353L9.6183 19.95C9.61818 20.481 9.91032 20.969 10.3784 21.2197C10.8465 21.4705 11.4147 21.4432 11.8566 21.1488L14.7366 19.2282C15.1376 18.9611 15.3784 18.5112 15.3783 18.0294L15.3783 13.0353L21.4749 6.52651L21.4821 6.51841C21.8693 6.09865 21.9679 5.48795 21.7323 4.96771ZM14.3289 12.0552C14.0788 12.3203 13.9391 12.6708 13.9383 13.0353L13.9383 18.0294L11.0583 19.95L11.0583 13.0353C11.0591 12.6695 10.92 12.3172 10.6695 12.0507L4.5783 5.55001L20.4183 5.55001L14.3289 12.0552Z" fill="#323743"/>
</svg>
