<svg width="13" height="12" viewBox="0 0 13 12" fill="none" xmlns="http://www.w3.org/2000/svg">
<path d="M6.50005 0.800049C3.62817 0.800049 1.30005 3.12817 1.30005 6.00005C1.30005 8.87193 3.62817 11.2 6.50005 11.2C9.37193 11.2 11.7 8.87193 11.7 6.00005C11.697 3.12942 9.37067 0.80308 6.50005 0.800049ZM6.50005 1.60005C7.35253 1.59914 8.1867 1.84731 8.90005 2.31405V3.30005L7.79155 4.58705L6.21805 4.80005L6.20255 4.78905L5.21905 4.14605C5.04289 4.02196 4.82413 3.97418 4.61228 4.01352C4.40043 4.05286 4.21341 4.17599 4.09355 4.35505L3.04655 5.92005C2.95933 6.05047 2.91238 6.20365 2.91155 6.36055L2.90005 8.17205L2.73655 8.27955C1.91361 6.92086 1.88689 5.22409 2.66665 3.84016C3.44641 2.45624 4.91157 1.60005 6.50005 1.60005ZM3.21455 8.92355L3.34055 8.84105C3.56401 8.69365 3.69894 8.44425 3.70005 8.17655L3.71055 6.36505L4.75855 4.80005C4.76368 4.804 4.76902 4.80767 4.77455 4.81105L5.75805 5.45455C5.92287 5.57087 6.12567 5.62037 6.32555 5.59305L7.90005 5.37955C8.09421 5.35364 8.27212 5.25739 8.40005 5.10905L9.50855 3.82105C9.63252 3.6758 9.70044 3.491 9.70005 3.30005V2.98355C10.802 4.14942 11.181 5.82324 10.6885 7.35005L9.88155 6.61205C9.6525 6.40181 9.32239 6.34331 9.03505 6.46205L7.51205 7.09455C7.25305 7.20326 7.06957 7.43925 7.02805 7.71705L6.90855 8.52655C6.84908 8.92999 7.10259 9.3136 7.49705 9.41705L8.57005 9.70005L8.68805 9.81855C6.88196 10.8548 4.59651 10.4811 3.21455 8.92355ZM9.35005 9.35005L9.13505 9.13455C9.03476 9.03388 8.90946 8.96174 8.77205 8.92555L7.70005 8.64255L7.81955 7.83305L9.34205 7.20005L10.35 8.12405C10.0931 8.58951 9.75438 9.00483 9.35005 9.35005Z" fill="#9095A1"/>
</svg>
