<svg width="12" height="12" viewBox="0 0 12 12" fill="none" xmlns="http://www.w3.org/2000/svg">
<path d="M4.28571 10.2858L8.66957 10.2858C8.85292 10.2858 9.03144 10.227 9.17893 10.1181C9.32642 10.0092 9.4351 9.85587 9.489 9.68063L10.6757 5.82348C10.7151 5.69534 10.7239 5.55974 10.7014 5.42758C10.6789 5.29541 10.6257 5.17037 10.5461 5.0625C10.4665 4.95463 10.3627 4.86694 10.243 4.80647C10.1234 4.746 9.99121 4.71445 9.85714 4.71434L6.85714 4.71434L6.85714 3.00006C6.85714 1.98306 6.321 1.50263 5.67257 1.34577C5.60931 1.33091 5.5435 1.33055 5.48008 1.34471C5.41665 1.35886 5.35725 1.38717 5.3063 1.42752C5.25536 1.46787 5.2142 1.51922 5.1859 1.57772C5.15759 1.63622 5.14288 1.70036 5.14286 1.76534L5.14286 3.42863L3 6.00006" stroke="white" stroke-width="1.02857" stroke-miterlimit="10"/>
<path d="M2.99993 5.14282L1.28564 5.14282L1.28564 10.2857H2.99993L2.99993 5.14282Z" stroke="white" stroke-width="1.02857" stroke-miterlimit="10" stroke-linecap="square"/>
</svg>
