<svg width="25" height="24" viewBox="0 0 25 24" fill="none" xmlns="http://www.w3.org/2000/svg">
<path d="M21.66 12C21.66 12.1989 21.581 12.3897 21.4403 12.5303C21.2997 12.671 21.1089 12.75 20.91 12.75L4.41 12.75C4.21109 12.75 4.02033 12.671 3.87967 12.5303C3.73902 12.3897 3.66 12.1989 3.66 12C3.66 11.8011 3.73902 11.6103 3.87967 11.4697C4.02033 11.329 4.21109 11.25 4.41 11.25L20.91 11.25C21.1089 11.25 21.2997 11.329 21.4403 11.4697C21.581 11.6103 21.66 11.8011 21.66 12ZM4.41 6.75L20.91 6.75C21.1089 6.75 21.2997 6.67098 21.4403 6.53033C21.581 6.38968 21.66 6.19891 21.66 6C21.66 5.80109 21.581 5.61032 21.4403 5.46967C21.2997 5.32902 21.1089 5.25 20.91 5.25L4.41 5.25C4.21109 5.25 4.02033 5.32902 3.87967 5.46967C3.73902 5.61032 3.66 5.80109 3.66 6C3.66 6.19891 3.73902 6.38968 3.87967 6.53033C4.02033 6.67098 4.21109 6.75 4.41 6.75ZM20.91 17.25L4.41 17.25C4.21109 17.25 4.02033 17.329 3.87967 17.4697C3.73902 17.6103 3.66 17.8011 3.66 18C3.66 18.1989 3.73902 18.3897 3.87967 18.5303C4.02033 18.671 4.21109 18.75 4.41 18.75L20.91 18.75C21.1089 18.75 21.2997 18.671 21.4403 18.5303C21.581 18.3897 21.66 18.1989 21.66 18C21.66 17.8011 21.581 17.6103 21.4403 17.4697C21.2997 17.329 21.1089 17.25 20.91 17.25Z" fill="#424856"/>
</svg>
