<svg width="16" height="16" viewBox="0 0 16 16" fill="none" xmlns="http://www.w3.org/2000/svg">
<path d="M12 7.42857L4 7.42857C3.36882 7.42857 2.85715 7.94025 2.85715 8.57143L2.85715 13.1429C2.85715 13.774 3.36882 14.2857 4 14.2857L12 14.2857C12.6312 14.2857 13.1429 13.774 13.1429 13.1429L13.1429 8.57143C13.1429 7.94025 12.6312 7.42857 12 7.42857Z" stroke="#171A1F" stroke-width="1.37143" stroke-miterlimit="10" stroke-linecap="square"/>
<path d="M8 12C8.63119 12 9.14286 11.4883 9.14286 10.8571C9.14286 10.226 8.63119 9.71428 8 9.71428C7.36882 9.71428 6.85715 10.226 6.85715 10.8571C6.85715 11.4883 7.36882 12 8 12Z" stroke="#171A1F" stroke-width="1.37143" stroke-miterlimit="10" stroke-linecap="square"/>
<path d="M10.8571 5.14285V4.57143C10.8646 3.82127 10.5738 3.09887 10.0487 2.56308C9.52367 2.02728 8.80729 1.72197 8.05714 1.71428H8C7.24985 1.70682 6.52744 1.9976 5.99165 2.52267C5.45586 3.04775 5.15054 3.76413 5.14285 4.51428V5.14285" stroke="#171A1F" stroke-width="1.37143" stroke-miterlimit="10" stroke-linecap="square"/>
</svg>
