<svg width="25" height="24" viewBox="0 0 25 24" fill="none" xmlns="http://www.w3.org/2000/svg">
<path d="M7.01702 17.7745L8.90959 19.2C9.34159 19.524 9.5953 20.0314 9.5953 20.5714V21.4285H2.73816V20.5714C2.73816 20.0314 2.99187 19.524 3.42387 19.2L5.31644 17.7745" stroke="#424856" stroke-width="2.05714" stroke-miterlimit="10"/>
<path d="M6.1668 17.9999C5.21966 17.9999 4.45251 17.2328 4.45251 16.2857L4.45251 15.4285C4.45251 14.4814 5.21966 13.7142 6.1668 13.7142C7.11394 13.7142 7.88109 14.4814 7.88109 15.4285V16.2857C7.88109 17.2328 7.11394 17.9999 6.1668 17.9999Z" stroke="#424856" stroke-width="2.05714" stroke-miterlimit="10" stroke-linecap="square"/>
<path d="M13.0171 6.63171L14.9097 8.05714C15.3417 8.38114 15.5954 8.88857 15.5954 9.42857V10.2857L8.73828 10.2857L8.73828 9.42857C8.73828 8.88857 8.992 8.38114 9.424 8.05714L11.3166 6.63171" stroke="#424856" stroke-width="2.05714" stroke-miterlimit="10"/>
<path d="M12.1667 6.85713C11.2195 6.85713 10.4524 6.08998 10.4524 5.14284V4.2857C10.4524 3.33855 11.2195 2.57141 12.1667 2.57141C13.1138 2.57141 13.881 3.33855 13.881 4.2857V5.14284C13.881 6.08998 13.1138 6.85713 12.1667 6.85713Z" stroke="#424856" stroke-width="2.05714" stroke-miterlimit="10" stroke-linecap="square"/>
<path d="M19.0171 17.7745L20.9097 19.2C21.3417 19.524 21.5954 20.0314 21.5954 20.5714V21.4285H14.7383L14.7383 20.5714C14.7383 20.0314 14.992 19.524 15.424 19.2L17.3166 17.7745" stroke="#424856" stroke-width="2.05714" stroke-miterlimit="10"/>
<path d="M18.1667 17.9999C17.2195 17.9999 16.4524 17.2328 16.4524 16.2857V15.4285C16.4524 14.4814 17.2195 13.7142 18.1667 13.7142C19.1138 13.7142 19.881 14.4814 19.881 15.4285V16.2857C19.881 17.2328 19.1138 17.9999 18.1667 17.9999Z" stroke="#424856" stroke-width="2.05714" stroke-miterlimit="10" stroke-linecap="square"/>
</svg>
