<svg width="25" height="24" viewBox="0 0 25 24" fill="none" xmlns="http://www.w3.org/2000/svg">
<path d="M9.95859 17.2166L7.17887 18.4114C6.54887 18.6823 6.14001 19.302 6.14001 19.9877V21.4286L18.14 21.4286V19.9877C18.14 19.302 17.7312 18.6823 17.1012 18.4123L14.3146 17.2226" stroke="#424856" stroke-width="2.05714" stroke-miterlimit="10"/>
<path d="M12.14 5.99998C13.0868 5.99998 13.8543 5.23247 13.8543 4.2857C13.8543 3.33892 13.0868 2.57141 12.14 2.57141C11.1932 2.57141 10.4257 3.33892 10.4257 4.2857C10.4257 5.23247 11.1932 5.99998 12.14 5.99998Z" stroke="#424856" stroke-width="2.05714" stroke-miterlimit="10" stroke-linecap="square"/>
<path d="M19.8543 10.2857C20.8011 10.2857 21.5686 9.51818 21.5686 8.5714C21.5686 7.62463 20.8011 6.85712 19.8543 6.85712C18.9075 6.85712 18.14 7.62463 18.14 8.5714C18.14 9.51818 18.9075 10.2857 19.8543 10.2857Z" stroke="#424856" stroke-width="2.05714" stroke-miterlimit="10" stroke-linecap="square"/>
<path d="M4.42574 10.2857C5.37252 10.2857 6.14003 9.51818 6.14003 8.5714C6.14003 7.62463 5.37252 6.85712 4.42574 6.85712C3.47897 6.85712 2.71146 7.62463 2.71146 8.5714C2.71146 9.51818 3.47897 10.2857 4.42574 10.2857Z" stroke="#424856" stroke-width="2.05714" stroke-miterlimit="10" stroke-linecap="square"/>
<path d="M12.14 18C10.2466 18 8.71146 16.4648 8.71146 14.5714L8.71146 13.7143C8.71146 11.8208 10.2466 10.2857 12.14 10.2857C14.0335 10.2857 15.5686 11.8208 15.5686 13.7143V14.5714C15.5686 16.4648 14.0335 18 12.14 18Z" stroke="#424856" stroke-width="2.05714" stroke-miterlimit="10" stroke-linecap="square"/>
</svg>
