<svg width="25" height="24" viewBox="0 0 25 24" fill="none" xmlns="http://www.w3.org/2000/svg">
<path d="M21.0834 3.75L4.58337 3.75C4.18555 3.75 3.80402 3.90804 3.52271 4.18934C3.24141 4.47064 3.08337 4.85218 3.08337 5.25L3.08337 20.25C3.08344 20.3778 3.11618 20.5035 3.17848 20.6151C3.24078 20.7268 3.33058 20.8206 3.43935 20.8878C3.54811 20.9549 3.67224 20.9932 3.79994 20.9989C3.92764 21.0046 4.05468 20.9775 4.169 20.9203L6.83337 19.5881L9.49775 20.9203C9.60195 20.9725 9.71686 20.9996 9.83337 20.9996C9.94989 20.9996 10.0648 20.9725 10.169 20.9203L12.8334 19.5881L15.4977 20.9203C15.6019 20.9725 15.7169 20.9996 15.8334 20.9996C15.9499 20.9996 16.0648 20.9725 16.169 20.9203L18.8334 19.5881L21.4977 20.9203C21.6121 20.9775 21.7391 21.0046 21.8668 20.9989C21.9945 20.9932 22.1186 20.9549 22.2274 20.8878C22.3362 20.8206 22.426 20.7268 22.4883 20.6151C22.5506 20.5035 22.5833 20.3778 22.5834 20.25L22.5834 5.25C22.5834 4.85218 22.4253 4.47064 22.144 4.18934C21.8627 3.90804 21.4812 3.75 21.0834 3.75ZM21.0834 19.0369L19.169 18.0787C19.0648 18.0266 18.9499 17.9995 18.8334 17.9995C18.7169 17.9995 18.6019 18.0266 18.4977 18.0787L15.8334 19.4119L13.169 18.0787C13.0648 18.0266 12.9499 17.9995 12.8334 17.9995C12.7169 17.9995 12.6019 18.0266 12.4977 18.0787L9.83337 19.4119L7.169 18.0787C7.0648 18.0266 6.94989 17.9995 6.83337 17.9995C6.71686 17.9995 6.60195 18.0266 6.49775 18.0787L4.58337 19.0369L4.58337 5.25L21.0834 5.25L21.0834 19.0369ZM13.5834 10.5C13.5834 10.3011 13.6624 10.1103 13.803 9.96967C13.9437 9.82902 14.1345 9.75 14.3334 9.75H18.8334C19.0323 9.75 19.2231 9.82902 19.3637 9.96967C19.5044 10.1103 19.5834 10.3011 19.5834 10.5C19.5834 10.6989 19.5044 10.8897 19.3637 11.0303C19.2231 11.171 19.0323 11.25 18.8334 11.25H14.3334C14.1345 11.25 13.9437 11.171 13.803 11.0303C13.6624 10.8897 13.5834 10.6989 13.5834 10.5ZM13.5834 13.5C13.5834 13.3011 13.6624 13.1103 13.803 12.9697C13.9437 12.829 14.1345 12.75 14.3334 12.75H18.8334C19.0323 12.75 19.2231 12.829 19.3637 12.9697C19.5044 13.1103 19.5834 13.3011 19.5834 13.5C19.5834 13.6989 19.5044 13.8897 19.3637 14.0303C19.2231 14.171 19.0323 14.25 18.8334 14.25H14.3334C14.1345 14.25 13.9437 14.171 13.803 14.0303C13.6624 13.8897 13.5834 13.6989 13.5834 13.5ZM6.83337 15.75H11.3334C11.5323 15.75 11.7231 15.671 11.8637 15.5303C12.0044 15.3897 12.0834 15.1989 12.0834 15L12.0834 9C12.0834 8.80109 12.0044 8.61032 11.8637 8.46967C11.7231 8.32902 11.5323 8.25 11.3334 8.25L6.83337 8.25C6.63446 8.25 6.4437 8.32902 6.30304 8.46967C6.16239 8.61032 6.08337 8.80109 6.08337 9L6.08337 15C6.08337 15.1989 6.16239 15.3897 6.30304 15.5303C6.4437 15.671 6.63446 15.75 6.83337 15.75ZM7.58337 9.75L10.5834 9.75L10.5834 14.25H7.58337L7.58337 9.75Z" fill="#424856"/>
</svg>
