<svg width="25" height="24" viewBox="0 0 25 24" fill="none" xmlns="http://www.w3.org/2000/svg">
<path d="M21.1475 10.7373L6.02755 2.10721C5.50572 1.81449 4.85726 1.87495 4.39853 2.25908C3.93981 2.64322 3.76642 3.27099 3.96295 3.83611L6.75295 11.9784C6.75259 11.9814 6.75259 11.9844 6.75295 11.9874C6.75244 11.9904 6.75244 11.9934 6.75295 11.9964L3.96295 20.1567C3.80696 20.5973 3.8745 21.0862 4.14411 21.468C4.41373 21.8498 4.85186 22.0769 5.31925 22.0773C5.56915 22.0767 5.81466 22.0116 6.03205 21.8883L21.1439 13.2438C21.5978 12.9896 21.8793 12.5103 21.8802 11.9901C21.8811 11.4699 21.6014 10.9896 21.1484 10.7337L21.1475 10.7373ZM5.31925 20.6373V20.6292L8.03185 12.7173H13.2392C13.6369 12.7173 13.9592 12.395 13.9592 11.9973C13.9592 11.5997 13.6369 11.2773 13.2392 11.2773H8.03905L5.32465 3.36811L5.31925 3.35731L20.4392 11.982L5.31925 20.6373Z" fill="#1A7C6B"/>
</svg>
