<svg width="25" height="24" viewBox="0 0 25 24" fill="none" xmlns="http://www.w3.org/2000/svg">
<path d="M15.3451 13.8817L13.5039 15.6981C12.5437 15.1191 11.6517 14.434 10.8447 13.6556C10.0675 12.8473 9.38247 11.9551 8.80223 10.9956L10.6168 9.15431C10.8416 8.92605 10.9062 8.58458 10.7802 8.29001L8.88823 3.87993C8.73375 3.52053 8.33936 3.32845 7.96115 3.42843L4.49191 4.34605C4.13512 4.43855 3.88964 4.76538 3.90023 5.13381C4.12097 9.16873 5.79864 12.9864 8.62163 15.8778C11.5135 18.7017 15.3322 20.3797 19.3682 20.6001C19.7371 20.6124 20.065 20.3668 20.1568 20.0092L21.0736 16.5383C21.1741 16.1603 20.9823 15.7657 20.6229 15.6112L16.212 13.7201C15.9171 13.5923 15.5741 13.6562 15.3451 13.8817Z" stroke="#1A7C6B" stroke-width="2.064" stroke-miterlimit="10" stroke-linecap="round"/>
</svg>
