<svg width="17" height="16" viewBox="0 0 17 16" fill="none" xmlns="http://www.w3.org/2000/svg">
<path d="M11.3605 9.92115C10.7136 9.92094 10.0942 10.1826 9.64334 10.6465L6.87734 8.86875C7.09492 8.31081 7.09492 7.69149 6.87734 7.13355L9.64334 5.35575C10.504 6.23739 11.8925 6.32408 12.8562 5.55635C13.8198 4.78863 14.0456 3.4159 13.3786 2.37997C12.7116 1.34403 11.3685 0.981452 10.2708 1.54098C9.17307 2.10051 8.67736 3.40036 9.12374 4.54875L6.35774 6.32655C5.67642 5.62707 4.63924 5.41011 3.73468 5.77785C2.83012 6.14558 2.23853 7.02469 2.23853 8.00115C2.23853 8.9776 2.83012 9.85671 3.73468 10.2244C4.63924 10.5922 5.67642 10.3752 6.35774 9.67575L9.12374 11.4535C8.74339 12.4346 9.04635 13.5489 9.87105 14.2023C10.6957 14.8557 11.8499 14.8957 12.7179 14.3011C13.5859 13.7064 13.9653 12.6157 13.6539 11.6107C13.3424 10.6057 12.4127 9.92076 11.3605 9.92115ZM11.3605 2.24115C12.1558 2.24115 12.8005 2.88586 12.8005 3.68115C12.8005 4.47644 12.1558 5.12115 11.3605 5.12115C10.5653 5.12115 9.92055 4.47644 9.92055 3.68115C9.92055 2.88586 10.5653 2.24115 11.3605 2.24115ZM4.64054 9.44115C3.84525 9.44115 3.20054 8.79644 3.20054 8.00115C3.20054 7.20586 3.84525 6.56115 4.64054 6.56115C5.43583 6.56115 6.08054 7.20586 6.08054 8.00115C6.08054 8.79644 5.43583 9.44115 4.64054 9.44115ZM11.3605 13.7611C10.5653 13.7611 9.92055 13.1164 9.92055 12.3211C9.92055 11.5259 10.5653 10.8811 11.3605 10.8811C12.1558 10.8811 12.8005 11.5259 12.8005 12.3211C12.8005 13.1164 12.1558 13.7611 11.3605 13.7611Z" fill="#9095A1"/>
</svg>
