<svg width="25" height="24" viewBox="0 0 25 24" fill="none" xmlns="http://www.w3.org/2000/svg">
<path d="M12.4999 2.64001C7.33051 2.64001 3.13989 6.83063 3.13989 12C3.13989 17.1694 7.33051 21.36 12.4999 21.36C17.6693 21.36 21.8599 17.1694 21.8599 12C21.8544 6.83289 17.667 2.64547 12.4999 2.64001ZM12.4999 19.92C8.1258 19.92 4.57989 16.3741 4.57989 12C4.57989 7.62592 8.1258 4.08001 12.4999 4.08001C16.874 4.08001 20.4199 7.62592 20.4199 12C20.4149 16.3721 16.8719 19.9151 12.4999 19.92ZM8.17989 10.2C8.17989 9.60355 8.66342 9.12001 9.25989 9.12001C9.85636 9.12001 10.3399 9.60355 10.3399 10.2C10.3399 10.7965 9.85636 11.28 9.25989 11.28C8.66342 11.28 8.17989 10.7965 8.17989 10.2ZM16.8199 10.2C16.8199 10.7965 16.3364 11.28 15.7399 11.28C15.1434 11.28 14.6599 10.7965 14.6599 10.2C14.6599 9.60355 15.1434 9.12001 15.7399 9.12001C16.3364 9.12001 16.8199 9.60355 16.8199 10.2ZM16.7236 14.52C15.7975 16.1211 14.2576 17.04 12.4999 17.04C10.7422 17.04 9.20319 16.122 8.27709 14.52C8.13521 14.2968 8.12711 14.0138 8.256 13.7829C8.38489 13.5519 8.63001 13.4102 8.89446 13.4138C9.1589 13.4174 9.4001 13.5657 9.52269 13.8C10.195 14.9619 11.2516 15.6 12.4999 15.6C13.7482 15.6 14.8048 14.961 15.4762 13.8C15.675 13.4556 16.1154 13.3375 16.4599 13.5363C16.8044 13.7351 16.9224 14.1756 16.7236 14.52Z" fill="#323743"/>
</svg>
