<svg width="17" height="16" viewBox="0 0 17 16" fill="none" xmlns="http://www.w3.org/2000/svg">
<path d="M8.50021 7.99999C6.9225 7.99999 5.64307 6.72057 5.64307 5.14285V4.57142C5.64307 2.99371 6.9225 1.71428 8.50021 1.71428C10.0779 1.71428 11.3574 2.99371 11.3574 4.57142V5.14285C11.3574 6.72057 10.0779 7.99999 8.50021 7.99999Z" stroke="#171A1F" stroke-width="1.37143" stroke-miterlimit="10" stroke-linecap="square"/>
<path d="M14.2142 13.0903C14.2142 12.0617 13.5302 11.1571 12.5376 10.8869C11.4554 10.5914 9.97764 10.2857 8.49993 10.2857C7.02222 10.2857 5.5445 10.5914 4.46222 10.8869C3.46964 11.1571 2.78564 12.0617 2.78564 13.0903V14.2857L14.2142 14.2857L14.2142 13.0903Z" stroke="#171A1F" stroke-width="1.37143" stroke-miterlimit="10" stroke-linecap="square"/>
</svg>
